<svg xmlns="http://www.w3.org/2000/svg">
	
	<!-- Long Right Arrow -->
    <symbol id="long-right-arrow" viewBox="0 0 113 16">
		<path d="M105.707,0.293 C105.526,0.112 105.276,0 105,0 C104.447,0 104,0.447 104,1 C104,1.276 104.112,1.526 104.293,1.707 L109.586,7 L1,7 C0.447,7 0,7.447 0,8 C0,8.553 0.447,9 1,9 L109.586,9 L104.293,14.293 C104.112,14.475 104,14.724 104,15 C104,15.553 104.447,16 105,16 C105.276,16 105.526,15.889 105.707,15.707 L112.707,8.707 C112.889,8.526 113,8.276 113,8 C113,7.724 112.889,7.475 112.707,7.293 L105.707,0.293 Z" id="arrow-right"></path>
    </symbol>

    <!-- Long Left Arrow -->
	<symbol id="long-left-arrow" viewBox="0 0 113 16">
		<path d="M105.707,0.293 C105.526,0.112 105.276,-1.42108547e-14 105,-1.42108547e-14 C104.447,-1.42108547e-14 104,0.447 104,1 C104,1.276 104.112,1.526 104.293,1.707 L109.586,7 L1,7 C0.447,7 -2.84217094e-14,7.447 -2.84217094e-14,8 C-2.84217094e-14,8.553 0.447,9 1,9 L109.586,9 L104.293,14.293 C104.112,14.475 104,14.724 104,15 C104,15.553 104.447,16 105,16 C105.276,16 105.526,15.889 105.707,15.707 L112.707,8.707 C112.889,8.526 113,8.276 113,8 C113,7.724 112.889,7.475 112.707,7.293 L105.707,0.293 Z" id="arrow-left" transform="translate(56.500000, 8.000000) rotate(-180.000000) translate(-56.500000, -8.000000) "></path>
	</symbol>

	<!-- LinkedIn-->
	<symbol id="linkedin" viewBox="0 0 25 25">
        <path d="M5.84263393,8.74888393 L5.84263393,25.3392857 L0.318080357,25.3392857 L0.318080357,8.74888393 L5.84263393,8.74888393 Z M6.19419643,3.62611607 C6.2053572,4.44085229 5.92355198,5.12164905 5.34877232,5.66852679 C4.77399266,6.21540452 4.01786183,6.48883929 3.08035714,6.48883929 L3.046875,6.48883929 C2.13169185,6.48883929 1.39509208,6.21540452 0.837053571,5.66852679 C0.279015067,5.12164905 0,4.44085229 0,3.62611607 C0,2.80021908 0.287385519,2.11663217 0.862165179,1.57533482 C1.43694484,1.03403747 2.18749537,0.763392857 3.11383929,0.763392857 C4.0401832,0.763392857 4.78236328,1.03403747 5.34040179,1.57533482 C5.89844029,2.11663217 6.18303566,2.80021908 6.19419643,3.62611607 Z M14.3973214,11.1064276 C14.6099192,10.7713543 14.8275512,10.4765805 15.0502232,10.2220982 C15.2845994,9.95423973 15.5998864,9.66406406 15.9960938,9.3515625 C16.3923011,9.03906094 16.8777873,8.79631783 17.452567,8.62332589 C18.0273466,8.45033396 18.6662911,8.36383929 19.3694196,8.36383929 C21.2779113,8.36383929 22.8124942,8.99720349 23.9732143,10.2639509 C25.1339344,11.5306983 25.7142857,13.3861485 25.7142857,15.8303571 L25.7142857,25.3392857 L20.2064732,25.3392857 L20.2064732,16.4665179 C20.2064732,15.294637 19.980471,14.3766774 19.5284598,13.7126116 C19.0764486,13.0485458 18.3705405,12.7165179 17.4107143,12.7165179 C16.7075858,12.7165179 16.118864,12.9090383 15.6445312,13.2940848 C15.1701985,13.6791314 14.8158494,14.1562472 14.5814732,14.7254464 C14.4587047,15.0602695 14.3973214,15.5122739 14.3973214,16.0814732 L14.3973214,25.3392857 L8.88950893,25.3392857 C8.91183047,20.8861384 8.92299107,17.2756835 8.92299107,14.5078125 C8.92299107,11.7399415 8.91741077,10.0881723 8.90625,9.55245536 L8.88950893,8.74888393 L14.3973214,8.74888393 L14.3973214,11.1064276 L14.3973214,11.1064276 Z" id="li" fill="#233237">
        </path>
    </symbol>

</svg>