<?xml version="1.0" encoding="UTF-8"?>
<svg width="44px" height="23px" viewBox="0 0 44 23" version="1.1" xmlns="http://www.w3.org/2000/svg" xmlns:xlink="http://www.w3.org/1999/xlink">
    <!-- Generator: Sketch 41.2 (35397) - http://www.bohemiancoding.com/sketch -->
    <title>right-arrow-white</title>
    <desc>Created with Sketch.</desc>
    <defs></defs>
    <g id="Page-1" stroke="none" stroke-width="1" fill="none" fill-rule="evenodd">
        <g id="Arrows" transform="translate(-420.000000, -101.860000)" fill="#FFFFFF">
            <path d="M463.7278,112.292 L453.7278,102.292 C453.5468,102.111 453.2968,101.999 453.0208,101.999 C452.4678,101.999 452.0208,102.446 452.0208,102.999 C452.0208,103.275 452.1328,103.525 452.3138,103.706 L460.6068,111.999 L421.0208,111.999 C420.4678,111.999 420.0208,112.446 420.0208,112.999 C420.0208,113.552 420.4678,113.999 421.0208,113.999 L460.6068,113.999 L452.3138,122.292 C452.1328,122.474 452.0208,122.723 452.0208,122.999 C452.0208,123.552 452.4678,123.999 453.0208,123.999 C453.2968,123.999 453.5468,123.888 453.7278,123.706 L463.7278,113.706 C463.9098,113.525 464.0208,113.275 464.0208,112.999 C464.0208,112.723 463.9098,112.474 463.7278,112.292" id="right-arrow"></path>
        </g>
    </g>
</svg>