<?xml version="1.0" encoding="UTF-8"?>
<svg width="90px" height="90px" viewBox="0 0 90 90" version="1.1" xmlns="http://www.w3.org/2000/svg" xmlns:xlink="http://www.w3.org/1999/xlink">
    <!-- Generator: Sketch 51.3 (57544) - http://www.bohemiancoding.com/sketch -->
    <title>archery-target</title>
    <desc>Created with Sketch.</desc>
    <defs></defs>
    <g id="Page-1" stroke="none" stroke-width="1" fill="none" fill-rule="evenodd" stroke-linecap="round" stroke-linejoin="round">
        <g id="wireframes" transform="translate(-1139.000000, -1078.000000)" stroke="#13AAE5" stroke-width="4">
            <g id="process" transform="translate(0.000000, 667.000000)">
                <g id="Group-2" transform="translate(1131.000000, 413.000000)">
                    <g id="archery-target" transform="translate(10.000000, 0.000000)">
                        <path d="M70.594,40.004 C71.51,43.178 72,46.532 72,50 C72,69.882 55.882,86 36,86 C16.118,86 0,69.882 0,50 C0,30.118 16.118,14 36,14 C39.472,14 42.83,14.492 46.006,15.408" id="Shape"></path>
                        <circle id="Oval" cx="36" cy="50" r="20"></circle>
                        <path d="M36,50 L82,4" id="Shape"></path>
                        <polygon id="Shape" points="74 12 70 0 58 12 62 24 74 28 86 16"></polygon>
                    </g>
                </g>
            </g>
        </g>
    </g>
</svg>