<?xml version="1.0" standalone="no"?>
<!DOCTYPE svg PUBLIC "-//W3C//DTD SVG 20010904//EN"
 "http://www.w3.org/TR/2001/REC-SVG-20010904/DTD/svg10.dtd">
<svg version="1.0" xmlns="http://www.w3.org/2000/svg"
 width="700.000000pt" height="700.000000pt" viewBox="0 0 700.000000 700.000000"
 preserveAspectRatio="xMidYMid meet">
<metadata>
Created by potrace 1.11, written by Peter Selinger 2001-2013
</metadata>
<g transform="translate(0.000000,700.000000) scale(0.100000,-0.100000)"
fill="#000000" stroke="none">
<path d="M3469 6987 c-8 -8 -639 -643 -1404 -1411 -765 -769 -1542 -1550
-1727 -1737 l-338 -339 909 0 908 0 844 850 844 850 208 -208 c114 -114 206
-210 205 -214 -2 -4 -288 -293 -637 -643 l-635 -635 419 -419 418 -420 376
379 c207 208 693 697 1080 1085 l703 706 -535 537 c-295 295 -781 784 -1080
1085 -464 467 -547 546 -558 534z"/>
<path d="M1708 3372 c-53 -53 -257 -257 -454 -451 l-357 -355 476 -470 c262
-259 772 -764 1134 -1122 362 -359 732 -724 822 -813 l164 -161 266 264 c146
146 375 372 508 503 132 131 555 549 938 928 383 380 808 799 943 933 136 134
382 378 548 543 l301 299 -913 0 -913 0 -138 -136 c-76 -75 -452 -447 -837
-828 -384 -380 -703 -690 -708 -688 -5 1 -181 173 -391 381 -210 208 -474 470
-587 581 -113 111 -316 312 -451 446 -135 134 -247 244 -250 244 -2 -1 -47
-45 -101 -98z"/>
</g>
</svg>
