<?xml version="1.0" encoding="UTF-8" standalone="no"?>
<svg width="396px" height="68px" viewBox="0 0 396 68" version="1.1" xmlns="http://www.w3.org/2000/svg" xmlns:xlink="http://www.w3.org/1999/xlink">
    <!-- Generator: Sketch 40.2 (33826) - http://www.bohemiancoding.com/sketch -->
    <title>jade-lajambe-logo</title>
    <desc>Created with Sketch.</desc>
    <defs>
        <polygon id="path-1" points="59.5210871 67.3461538 0 67.3461538 0 0.00392307692 59.5210871 0.00392307692 59.5210871 67.3461538"></polygon>
    </defs>
    <g id="Site" stroke="none" stroke-width="1" fill="none" fill-rule="evenodd">
        <g id="nav" transform="translate(-762.000000, -145.000000)">
            <g id="jade-lajambe-logo" transform="translate(762.000000, 145.000000)">
                <g id="Group-3" transform="translate(0.000000, 0.649923)">
                    <mask id="mask-2" fill="white">
                        <use xlink:href="#path-1"></use>
                    </mask>
                    <g id="Clip-2"></g>
                    <path d="M2.87936436,14.8530308 C9.27025545,12.1794538 21.4011861,5.17218462 26.9105525,0.970569231 C28.6010673,-0.318815385 30.9202158,-0.318815385 32.6107307,0.970569231 C38.120097,5.17218462 50.2503743,12.1794538 56.6419188,14.8530308 C58.6029683,15.6736077 59.4792653,17.6658769 59.4916812,19.7928385 C59.5308891,26.4659923 59.5308891,40.4818385 59.4916812,47.5571077 C59.4805723,49.6840692 58.6029683,51.6763385 56.6419188,52.4969154 C50.2503743,55.1704923 38.120097,62.1777615 32.6107307,66.3793769 C30.9202158,67.6687615 28.6010673,67.6687615 26.9105525,66.3793769 C21.4011861,62.1777615 9.27025545,55.1704923 2.87936436,52.4969154 C0.918314851,51.6763385 0.0407108911,49.6840692 0.0289485149,47.5571077 C-0.00960594059,40.4818385 -0.00960594059,26.9524538 0.0289485149,19.7928385 C0.0407108911,17.6658769 0.918314851,15.6736077 2.87936436,14.8530308" id="Fill-1" fill="#41ACC4" mask="url(#mask-2)"></path>
                </g>
                <path d="M8.4979901,50.2129654 L39.7048812,25.0085038 L39.7048812,14.3625808 L15.5998515,34.2506192 L15.5998515,8.91538846 C12.6971584,10.6016577 9.73434653,12.2186192 7.11591089,13.5295808 L7.11591089,49.5682731 C7.11591089,50.2835808 7.95038614,50.6726192 8.4979901,50.2129654" id="Fill-4" fill="#000000"></path>
                <polygon id="Fill-6" fill="#FFFFFF" points="19.8162059 14.3625154 19.8162059 25.0084385 22.0098891 26.7797077 28.4380277 21.4763615"></polygon>
                <path d="M37.4998931,28.9526346 L31.0998535,34.1219423 L51.0233584,50.2130962 C51.5703089,50.67275 52.4054376,50.2837115 52.4054376,49.5684038 L52.4054376,13.5290577 C49.787002,12.2180962 46.8241901,10.6017885 43.9208436,8.91551923 L43.9208436,34.25075 L37.4998931,28.9526346 Z" id="Fill-8" fill="#FFFFFF"></path>
                <path d="M139.076703,24.5525115 L139.076703,44.3392038 L142.302861,44.3392038 C155.117317,44.3392038 155.117317,24.5525115 142.302861,24.5525115 L139.076703,24.5525115 Z M142.302861,50.93455 L133.155,50.93455 C132.784485,50.93455 132.484545,50.6344346 132.484545,50.2637038 L132.484545,18.6280115 C132.484545,18.2572808 132.784485,17.9571654 133.155,17.9571654 L142.302861,17.9571654 C164.244267,17.9571654 164.244267,50.93455 142.302861,50.93455 L142.302861,50.93455 Z" id="Fill-10" fill="#FFFFFF"></path>
                <path d="M206.403891,50.3130692 L206.403891,17.9692615 L212.705257,17.9692615 L212.705257,44.5258769 C212.705257,44.8698 212.983634,45.1483385 213.327356,45.1476846 L224.291851,45.1248 L224.291851,50.9342231 L207.024683,50.9342231 C206.681614,50.9342231 206.403891,50.6563385 206.403891,50.3130692" id="Fill-12" fill="#FFFFFF"></path>
                <path d="M365.448796,40.9819 C365.448796,39.6310538 365.148202,38.5201692 364.548321,37.6492462 C363.94844,36.7789769 363.032935,36.3435154 361.803113,36.3435154 L354.647014,36.3435154 L354.647014,45.3495923 L361.803113,45.3947077 C364.23335,45.3947077 365.448796,43.9248615 365.448796,40.9819 L365.448796,40.9819 Z M354.647014,31.0290538 L361.533232,31.0290538 C362.672875,31.0290538 363.536103,30.7067077 364.120954,30.0613615 C364.706459,29.4153615 364.998558,28.4476692 364.998558,27.1563231 C364.998558,25.8662846 364.667905,24.9424 364.008558,24.3866308 C363.347905,23.8315154 362.523232,23.5536308 361.533232,23.5536308 L354.647014,23.5536308 L354.647014,31.0290538 Z M348.345648,50.4450154 L348.345648,18.4588615 C348.345648,18.1888231 348.564558,17.9697846 348.83444,17.9697846 L361.93838,17.9697846 C365.118796,17.9697846 367.458202,18.7877462 368.959212,20.4236692 C370.459568,22.0609 371.209747,24.1839385 371.209747,26.7960538 C371.209747,28.4777462 370.834004,30.0012077 370.084479,31.3670923 C369.334301,32.7336308 368.209034,33.5515923 366.708677,33.8216308 C368.149568,34.0910154 369.349331,34.8952462 370.309925,36.2310538 C371.269212,37.5668615 371.750162,39.2413615 371.750162,41.2519385 C371.750162,44.4041308 370.977113,46.8063615 369.432321,48.4573231 C367.886222,50.1089385 365.418737,50.9347462 362.028558,50.9347462 L348.83444,50.9347462 C348.564558,50.9347462 348.345648,50.7157077 348.345648,50.4450154 L348.345648,50.4450154 Z" id="Fill-14" fill="#FFFFFF"></path>
                <path d="M337.084349,50.9344846 L337.084349,29.7237154 L319.173517,44.5012923 L319.173517,36.5910615 L342.361735,17.8629462 C342.76819,17.5209846 343.388329,17.8106385 343.388329,18.3422154 L343.388329,50.9344846 L337.084349,50.9344846 Z" id="Fill-16" fill="#41ACC4"></path>
                <path d="M309.736693,50.9344846 L309.736693,18.3422154 C309.736693,17.8106385 310.356832,17.5209846 310.763941,17.8629462 L333.951505,36.5910615 L333.951505,44.5012923 L316.040673,29.7237154 L316.040673,50.9344846 L309.736693,50.9344846 Z" id="Fill-18" fill="#FFFFFF"></path>
                <path d="M268.777485,50.9344846 L258.980733,50.9344846 L258.980733,45.1250615 L266.527604,45.1250615 C267.307842,45.1250615 267.922099,45.0348308 268.37299,44.8543692 C269.002931,44.6150615 269.317901,43.9246 269.317901,42.7829846 L269.317901,17.9695231 L275.618614,17.9695231 L275.618614,44.5392154 C275.618614,48.8029462 273.338673,50.9344846 268.777485,50.9344846" id="Fill-20" fill="#FFFFFF"></path>
                <path d="M395.953996,50.9344846 L375.864511,50.9344846 C375.605085,50.9344846 375.395323,50.7239462 375.395323,50.4650231 L375.395323,18.4389846 C375.395323,18.1794077 375.605085,17.9695231 375.864511,17.9695231 L395.953996,17.9695231 L395.953996,23.5533692 L382.105105,23.5533692 C381.879006,23.5533692 381.696036,23.7364462 381.696036,23.9626769 L381.696036,31.0294462 L394.07855,31.0294462 L394.07855,36.3432538 L381.696036,36.3432538 L381.696036,44.9419846 C381.696036,45.1675615 381.878352,45.3499846 382.103798,45.3506385 L395.953996,45.3951 L395.953996,50.9344846 Z" id="Fill-22" fill="#FFFFFF"></path>
                <path d="M289.40536,38.4247731 L292.357717,30.7139654 L295.30942,38.4247731 L289.40536,38.4247731 Z M292.943875,18.0842731 C292.726271,17.5997731 292.042093,17.5899654 291.810766,18.0685808 L277.865162,50.9341577 L284.571677,50.9341577 L284.616113,50.9341577 L287.169855,44.2642731 L297.545578,44.2642731 L300.099321,50.9341577 L300.143756,50.9341577 L306.850271,50.9341577 L292.943875,18.0842731 Z" id="Fill-24" fill="#FFFFFF"></path>
                <path d="M238.487406,38.4247731 L241.439762,30.7139654 L244.391465,38.4247731 L238.487406,38.4247731 Z M242.026574,18.0842731 C241.808317,17.5997731 241.124139,17.5899654 240.892812,18.0685808 L226.947208,50.9341577 L233.653723,50.9341577 L233.698158,50.9341577 L236.251901,44.2642731 L246.627624,44.2642731 L249.181366,50.9341577 L249.225802,50.9341577 L255.932317,50.9341577 L242.026574,18.0842731 Z" id="Fill-26" fill="#FFFFFF"></path>
                <path d="M91.3479861,50.9344846 L81.5512337,50.9344846 L81.5512337,45.1250615 L89.098105,45.1250615 C89.8783426,45.1250615 90.4926,45.0348308 90.9434911,44.8543692 C91.5734317,44.6150615 91.888402,43.9246 91.888402,42.7829846 L91.888402,17.9695231 L98.1891149,17.9695231 L98.1891149,44.5392154 C98.1891149,48.8029462 95.9091743,50.9344846 91.3479861,50.9344846" id="Fill-28" fill="#FFFFFF"></path>
                <path d="M112.384669,38.4249038 L115.337026,30.7140962 L118.288729,38.4249038 L112.384669,38.4249038 Z M115.923838,18.0844038 C115.70558,17.5999038 115.021402,17.5900962 114.790075,18.0687115 L100.844471,50.9342885 L107.550986,50.9342885 L107.595422,50.9342885 L110.149164,44.2644038 L120.524887,44.2644038 L123.07863,50.9342885 L123.123065,50.9342885 L129.82958,50.9342885 L115.923838,18.0844038 Z" id="Fill-30" fill="#FFFFFF"></path>
                <path d="M181.972978,50.9344846 L161.883493,50.9344846 C161.624067,50.9344846 161.414305,50.7239462 161.414305,50.4650231 L161.414305,18.4389846 C161.414305,18.1794077 161.624067,17.9695231 161.883493,17.9695231 L181.972978,17.9695231 L181.972978,23.5533692 L168.124087,23.5533692 C167.897988,23.5533692 167.715018,23.7364462 167.715018,23.9626769 L167.715018,31.0294462 L180.097533,31.0294462 L180.097533,36.3432538 L167.715018,36.3432538 L167.715018,44.9419846 C167.715018,45.1675615 167.897335,45.3499846 168.12278,45.3506385 L181.972978,45.3951 L181.972978,50.9344846 Z" id="Fill-32" fill="#FFFFFF"></path>
            </g>
        </g>
    </g>
</svg>