<svg xmlns="http://www.w3.org/2000/svg" xmlns:xlink="http://www.w3.org/1999/xlink" width="125" height="141" viewBox="0 0 125 141">
    <defs>
        <path id="a" d="M0 .988h124.708V142H0z"/>
    </defs>
    <g fill="none" fill-rule="evenodd">
        <g transform="translate(0 -.987)">
            <mask id="b" fill="#fff">
                <use xlink:href="#a"/>
            </mask>
            <path fill="#3FABC3" d="M6.034 32.082c13.392-5.6 38.804-20.272 50.348-29.072a9.83 9.83 0 0 1 11.944 0c11.544 8.8 36.956 23.472 50.348 29.072 4.108 1.716 5.944 5.888 5.972 10.34.084 13.976.084 43.324 0 58.14-.024 4.456-1.864 8.628-5.972 10.344-13.392 5.596-38.804 20.272-50.348 29.072a9.83 9.83 0 0 1-11.944 0c-11.544-8.8-36.956-23.476-50.348-29.072-4.108-1.716-5.948-5.888-5.972-10.344-.084-14.816-.084-43.144 0-58.14.024-4.452 1.864-8.624 5.972-10.34" mask="url(#b)"/>
        </g>
        <path fill="#020303" d="M17.804 103.776l65.388-52.78V28.704L32.688 70.352V17.3c-6.084 3.532-12.296 6.916-17.78 9.66v75.468c0 1.496 1.752 2.312 2.896 1.348"/>
        <path fill="#FEFEFE" d="M41.518 28.706v22.292l4.596 3.708 13.472-11.104zM78.57 59.257L65.156 70.08l41.748 33.696c1.144.964 2.896.148 2.896-1.352V26.96c-5.484-2.744-11.696-6.128-17.78-9.66v53.048L78.57 59.257z"/>
    </g>
</svg>
