<?xml version="1.0" encoding="UTF-8"?>
<svg width="24px" height="25px" viewBox="0 0 24 25" version="1.1" xmlns="http://www.w3.org/2000/svg" xmlns:xlink="http://www.w3.org/1999/xlink">
    <!-- Generator: Sketch 41.2 (35397) - http://www.bohemiancoding.com/sketch -->
    <title>at-symbol</title>
    <desc>Created with Sketch.</desc>
    <defs></defs>
    <g id="Page-1" stroke="none" stroke-width="1" fill="none" fill-rule="evenodd">
        <g id="Web" transform="translate(-420.000000, -258.860000)" fill="#CFD9DB">
            <path d="M433.759934,275.361872 C433.351593,275.854171 432.922535,276.246157 432.483663,276.526926 C432.046972,276.806059 431.58902,276.999599 431.123434,277.102093 C430.039612,277.341973 429.015761,277.314714 428.168003,276.965797 C427.689878,276.770077 427.273359,276.495305 426.929349,276.146934 C426.582614,275.799653 426.308387,275.387495 426.113212,274.923546 C425.918037,274.462322 425.818814,273.945489 425.818814,273.388858 C425.818814,272.503483 425.994907,271.549415 426.341098,270.554457 C426.687289,269.55732 427.181223,268.620697 427.808183,267.770758 C428.43078,266.926272 429.19349,266.214264 430.073959,265.653272 C430.941889,265.101548 431.90577,264.821869 432.938345,264.821869 C433.359225,264.821869 433.801913,264.869845 434.254959,264.964162 C434.702554,265.057933 435.134883,265.214945 435.541044,265.432473 C435.940117,265.648365 436.296666,265.93404 436.600332,266.283502 C436.886553,266.613882 437.108442,267.036398 437.260547,267.540146 L434.846482,273.473907 C434.534092,274.235526 434.168275,274.870118 433.759934,275.361872 L433.759934,275.361872 Z M442.470306,276.887291 C441.952928,277.590576 441.338508,278.259514 440.642311,278.87775 C439.947204,279.494896 439.167594,280.039533 438.325288,280.498031 C437.486253,280.954894 436.581251,281.316349 435.635905,281.572585 C434.695466,281.827185 433.694512,281.956938 432.663028,281.956938 C431.110895,281.956938 429.617096,281.718693 428.224702,281.250382 C426.836123,280.782616 425.598015,280.077696 424.546359,279.153612 C423.496339,278.233345 422.651852,277.072108 422.035796,275.702611 C421.420286,274.333659 421.108442,272.721556 421.108442,270.911006 C421.108442,269.403033 421.403385,267.977382 421.984549,266.672762 C422.567349,265.367051 423.384576,264.209085 424.414425,263.232664 C425.445364,262.254607 426.678566,261.472816 428.080774,260.909643 C429.482982,260.345925 431.024756,260.06025 432.663028,260.06025 C434.12139,260.06025 435.498519,260.281049 436.756799,260.717739 C438.010173,261.15334 439.104353,261.770486 440.007719,262.553912 C440.908905,263.334613 441.62691,264.288681 442.139926,265.387768 C442.651307,266.485765 442.911358,267.707517 442.911358,269.01868 C442.911358,270.181008 442.697102,271.279549 442.274041,272.282139 C441.849344,273.289635 441.310704,274.171195 440.675022,274.901738 C440.04043,275.630101 439.33551,276.213446 438.580978,276.634327 C437.83626,277.0503 437.118255,277.260195 436.446046,277.260195 C436.037159,277.260195 435.733493,277.18278 435.542679,277.028493 C435.354046,276.875842 435.243374,276.67358 435.204121,276.408621 C435.162687,276.122946 435.195943,275.778391 435.303344,275.383134 C435.414016,274.973157 435.572664,274.527198 435.776562,274.053435 L439.708414,264.378636 L438.540089,264.378636 L437.816088,266.264421 C437.471533,265.538783 436.906724,264.952713 436.133656,264.518748 C435.235742,264.014455 434.206438,263.758764 433.075731,263.758764 C431.8289,263.758764 430.672023,264.070063 429.635633,264.683938 C428.609055,265.292906 427.721499,266.083965 426.998042,267.035853 C426.277857,267.983379 425.712503,269.027948 425.317792,270.140664 C424.921444,271.255561 424.721362,272.348651 424.721362,273.388858 C424.721362,274.065974 424.847845,274.713105 425.097538,275.31117 C425.347231,275.909235 425.691241,276.435335 426.120299,276.874752 C426.550448,277.31744 427.070006,277.672898 427.663709,277.931314 C428.968875,278.50103 430.553174,278.415981 432.124933,277.905146 C432.856568,277.667992 433.521144,277.224759 434.108851,276.58417 C434.137745,277.01868 434.314384,277.390494 434.636587,277.696341 C435.075458,278.112315 435.660438,278.323845 436.377353,278.323845 C437.233288,278.323845 438.128477,278.074152 439.03675,277.581308 C439.9363,277.093915 440.765522,276.419525 441.500427,275.578854 C442.233152,274.74091 442.84103,273.750859 443.306615,272.636507 C443.772746,271.518339 444.0099,270.301493 444.0099,269.01868 C444.0099,267.493806 443.707869,266.092688 443.112531,264.854035 C442.518282,263.615382 441.696693,262.550096 440.670115,261.687073 C439.645173,260.826231 438.430508,260.155112 437.061556,259.692797 C435.69424,259.231028 434.214071,258.9966 432.663028,258.9966 C430.949521,258.9966 429.304707,259.298086 427.774927,259.891244 C426.245691,260.484947 424.887098,261.321256 423.738399,262.378364 C422.589156,263.434926 421.670524,264.702474 421.008673,266.145026 C420.345732,267.589758 420.0099,269.193683 420.0099,270.911006 C420.0099,272.996873 420.381169,274.826503 421.113893,276.348106 C421.845528,277.869709 422.818677,279.137802 424.004448,280.11913 C425.188583,281.098822 426.554264,281.830456 428.064418,282.29277 C429.566394,282.753449 431.113621,282.986787 432.663028,282.986787 C433.729949,282.986787 434.806138,282.84722 435.861611,282.573539 C436.914357,282.299312 437.930031,281.902965 438.880283,281.397036 C439.83108,280.891652 440.722998,280.268509 441.534229,279.543418 C442.34764,278.816145 443.042202,278.000553 443.600468,277.118993 L443.79946,276.803878 L442.531912,276.803878 L442.470306,276.887291 Z" id="at-symbol"></path>
        </g>
    </g>
</svg>