<?xml version="1.0" encoding="UTF-8"?>
<svg width="27px" height="25px" viewBox="0 0 27 25" version="1.1" xmlns="http://www.w3.org/2000/svg" xmlns:xlink="http://www.w3.org/1999/xlink">
    <!-- Generator: Sketch 41.2 (35397) - http://www.bohemiancoding.com/sketch -->
    <title>message-dots</title>
    <desc>Created with Sketch.</desc>
    <defs></defs>
    <g id="Page-1" stroke="none" stroke-width="1" fill="none" fill-rule="evenodd">
        <g id="General" transform="translate(-672.000000, -260.860000)" fill="#CFD9DB">
            <path d="M691.2209,269.999 C690.2273,269.999 689.4209,270.8054 689.4209,271.799 C689.4209,272.7932 690.2273,273.599 691.2209,273.599 C692.2145,273.599 693.0209,272.7932 693.0209,271.799 C693.0209,270.8054 692.2145,269.999 691.2209,269.999 M685.2209,281.399 C684.0773,281.399 682.9253,281.2622 681.7967,280.9928 C681.7049,280.9712 681.6107,280.9604 681.5177,280.9604 C681.3659,280.9604 681.2141,280.9886 681.0725,281.0462 L676.1177,283.028 L676.9253,279.5936 C677.0297,279.1532 676.8761,278.6924 676.5305,278.4014 C674.3963,276.6044 673.2209,274.259 673.2209,271.799 C673.2209,266.5058 678.6047,262.199 685.2209,262.199 C691.8377,262.199 697.2209,266.5058 697.2209,271.799 C697.2209,277.0922 691.8377,281.399 685.2209,281.399 M685.2209,260.999 C677.9309,260.999 672.0209,265.835 672.0209,271.799 C672.0209,274.7246 673.4483,277.3742 675.7577,279.3188 L674.4209,284.999 L681.5177,282.161 C682.6937,282.4406 683.9339,282.599 685.2209,282.599 C692.5109,282.599 698.4209,277.7642 698.4209,271.799 C698.4209,265.835 692.5109,260.999 685.2209,260.999 M685.2209,269.999 C684.2273,269.999 683.4209,270.8054 683.4209,271.799 C683.4209,272.7932 684.2273,273.599 685.2209,273.599 C686.2145,273.599 687.0209,272.7932 687.0209,271.799 C687.0209,270.8054 686.2145,269.999 685.2209,269.999 M679.2209,269.999 C678.2273,269.999 677.4209,270.8054 677.4209,271.799 C677.4209,272.7932 678.2273,273.599 679.2209,273.599 C680.2145,273.599 681.0209,272.7932 681.0209,271.799 C681.0209,270.8054 680.2145,269.999 679.2209,269.999" id="message-dots"></path>
        </g>
    </g>
</svg>