<?xml version="1.0" encoding="UTF-8"?>
<svg width="25px" height="25px" viewBox="0 0 25 25" version="1.1" xmlns="http://www.w3.org/2000/svg" xmlns:xlink="http://www.w3.org/1999/xlink">
    <!-- Generator: Sketch 41.2 (35397) - http://www.bohemiancoding.com/sketch -->
    <title>male-avatar-icon</title>
    <desc>Created with Sketch.</desc>
    <defs></defs>
    <g id="Page-1" stroke="none" stroke-width="1" fill="none" fill-rule="evenodd">
        <g id="General" transform="translate(-756.000000, -762.860000)" fill="#CFD9DB">
            <path d="M775.974718,782.449018 C775.3229,781.826109 774.067264,780.716109 772.817082,780.124836 C771.786173,779.638291 771.195445,779.144655 771.011627,778.618291 C770.884536,778.252291 770.941264,777.833382 771.186173,777.337018 C771.371082,776.962291 771.545627,776.650836 771.707082,776.363927 C772.387264,775.148655 772.913082,774.271564 772.913082,771.164109 C772.913082,766.513018 770.228355,766.277927 769.697082,766.277927 C769.261809,766.277927 768.989627,766.373927 768.726173,766.4672 C768.438173,766.569745 768.139809,766.675564 767.460718,766.687018 C766.231809,766.7072 763.657264,766.749745 763.657264,771.027745 C763.657264,774.020655 764.436173,775.394655 765.048718,776.4992 C765.205264,776.781745 765.353082,777.049564 765.470355,777.315745 C765.991264,778.497745 765.611082,779.324109 764.272536,779.914836 C762.581627,780.662109 761.785264,781.051018 760.124355,782.512291 C758.262173,780.5552 757.111809,777.914109 757.111809,774.9992 C757.111809,768.974109 761.995809,764.090109 768.0209,764.090109 C774.045991,764.090109 778.929991,768.974109 778.929991,774.9992 C778.929991,777.883018 777.802536,780.498473 775.974718,782.449018 M768.0209,785.908291 C765.305082,785.908291 762.827082,784.910109 760.917445,783.267745 C762.387445,781.982109 763.089991,781.629745 764.713264,780.913018 C766.593445,780.082291 767.233264,778.6112 766.468536,776.875564 C766.331082,776.564109 766.171264,776.275564 766.002718,775.970109 C765.422355,774.923927 764.748173,773.738109 764.748173,771.027745 C764.748173,767.822655 766.269991,767.797564 767.478718,767.777382 C768.336173,767.762655 768.755082,767.614836 769.090536,767.495927 C769.314718,767.415745 769.449991,767.368836 769.697082,767.368836 C770.707809,767.368836 771.822173,768.365927 771.822173,771.164109 C771.822173,773.986291 771.3989,774.680655 770.755264,775.830473 C770.585627,776.132655 770.401809,776.460473 770.208173,776.854291 C769.832355,777.616291 769.756536,778.330291 769.981809,778.9772 C770.2709,779.805745 771.023627,780.484291 772.350173,781.112109 C773.437264,781.625382 774.577264,782.629018 775.189264,783.209382 C773.2709,784.885018 770.767809,785.908291 768.0209,785.908291 M768.0209,762.9992 C761.393627,762.9992 756.0209,768.371382 756.0209,774.9992 C756.0209,781.626473 761.393627,786.9992 768.0209,786.9992 C774.648173,786.9992 780.0209,781.626473 780.0209,774.9992 C780.0209,768.371382 774.648173,762.9992 768.0209,762.9992" id="male-avatar-icon"></path>
        </g>
    </g>
</svg>